<svg xmlns="http://www.w3.org/2000/svg" width="72" height="80" viewBox="0 0 72 80">
  <rect x="16" y="28" width="30" height="38" fill="#221714"/>
  <rect x="20" y="31" width="22" height="10" fill="#3a2620"/>
  <rect x="28" y="28" width="4" height="38" fill="#080808"/>
  <rect x="18" y="50" width="27" height="5" fill="#7b4b20"/>
  <rect x="21" y="9" width="22" height="22" fill="#d6b18f"/>
  <rect x="17" y="5" width="30" height="8" fill="#151515"/>
  <rect x="27" y="4" width="10" height="4" fill="#b00000"/>
  <rect x="24" y="17" width="4" height="3" fill="#111"/>
  <rect x="36" y="17" width="4" height="3" fill="#111"/>
  <rect x="27" y="25" width="10" height="3" fill="#3a2416"/>
  <rect x="39" y="23" width="16" height="2" fill="#ffdf8a"/>
  <circle cx="56" cy="24" r="3" fill="#ff4a1c"/>
  <circle cx="58" cy="24" r="5" fill="#ffbd30" opacity="0.35"/>
  <rect x="18" y="66" width="10" height="10" fill="#111"/>
  <rect x="35" y="66" width="10" height="10" fill="#111"/>
  <rect x="39" y="39" width="16" height="8" fill="#3a2416"/>
</svg>
